<?xml version="1.0" encoding="UTF-8" standalone="no"?>
<!DOCTYPE svg PUBLIC "-//W3C//DTD SVG 1.1//EN"
 "http://www.w3.org/Graphics/SVG/1.1/DTD/svg11.dtd">
<!-- Generated by graphviz version 2.40.1 (20161225.0304)
 -->
<!-- Title: xxh Pages: 1 -->
<svg width="458pt" height="332pt"
 viewBox="0.00 0.00 458.00 332.00" xmlns="http://www.w3.org/2000/svg" xmlns:xlink="http://www.w3.org/1999/xlink">
<g id="graph0" class="graph" transform="scale(1 1) rotate(0) translate(4 328)">
<title>xxh</title>
<polygon fill="#ffffff" stroke="transparent" points="-4,4 -4,-328 454,-328 454,4 -4,4"/>
<!-- nn -->
<g id="node1" class="node">
<title>nn</title>
<ellipse fill="none" stroke="#000000" cx="207" cy="-90" rx="27" ry="18"/>
<text text-anchor="middle" x="207" y="-86.3" font-family="Times,serif" font-size="14.00" fill="#000000">null</text>
</g>
<!-- nnn -->
<g id="node2" class="node">
<title>nnn</title>
<ellipse fill="none" stroke="#000000" cx="27" cy="-18" rx="27" ry="18"/>
<text text-anchor="middle" x="27" y="-14.3" font-family="Times,serif" font-size="14.00" fill="#000000">null</text>
</g>
<!-- a -->
<g id="node3" class="node">
<title>a</title>
<ellipse fill="none" stroke="#000000" cx="243" cy="-306" rx="27" ry="18"/>
<text text-anchor="middle" x="243" y="-302.3" font-family="Times,serif" font-size="14.00" fill="#000000">a</text>
</g>
<!-- b -->
<g id="node4" class="node">
<title>b</title>
<ellipse fill="none" stroke="#000000" cx="207" cy="-234" rx="27" ry="18"/>
<text text-anchor="middle" x="207" y="-230.3" font-family="Times,serif" font-size="14.00" fill="#000000">b</text>
</g>
<!-- a&#45;&#45;b -->
<g id="edge1" class="edge">
<title>a&#45;&#45;b</title>
<path fill="none" stroke="#000000" d="M234.2854,-288.5708C228.6253,-277.2506 221.2784,-262.5568 215.6343,-251.2687"/>
</g>
<!-- c -->
<g id="node5" class="node">
<title>c</title>
<ellipse fill="none" stroke="#000000" cx="279" cy="-234" rx="27" ry="18"/>
<text text-anchor="middle" x="279" y="-230.3" font-family="Times,serif" font-size="14.00" fill="#000000">c</text>
</g>
<!-- a&#45;&#45;c -->
<g id="edge2" class="edge">
<title>a&#45;&#45;c</title>
<path fill="none" stroke="#000000" d="M251.7146,-288.5708C257.3747,-277.2506 264.7216,-262.5568 270.3657,-251.2687"/>
</g>
<!-- d -->
<g id="node6" class="node">
<title>d</title>
<ellipse fill="none" stroke="#000000" cx="135" cy="-162" rx="27" ry="18"/>
<text text-anchor="middle" x="135" y="-158.3" font-family="Times,serif" font-size="14.00" fill="#000000">d</text>
</g>
<!-- b&#45;&#45;d -->
<g id="edge3" class="edge">
<title>b&#45;&#45;d</title>
<path fill="none" stroke="#000000" d="M191.7307,-218.7307C179.512,-206.512 162.4602,-189.4602 150.2473,-177.2473"/>
</g>
<!-- e -->
<g id="node7" class="node">
<title>e</title>
<ellipse fill="none" stroke="#000000" cx="207" cy="-162" rx="27" ry="18"/>
<text text-anchor="middle" x="207" y="-158.3" font-family="Times,serif" font-size="14.00" fill="#000000">e</text>
</g>
<!-- b&#45;&#45;e -->
<g id="edge4" class="edge">
<title>b&#45;&#45;e</title>
<path fill="none" stroke="#000000" d="M207,-215.8314C207,-205 207,-191.2876 207,-180.4133"/>
</g>
<!-- f -->
<g id="node8" class="node">
<title>f</title>
<ellipse fill="none" stroke="#000000" cx="279" cy="-162" rx="27" ry="18"/>
<text text-anchor="middle" x="279" y="-158.3" font-family="Times,serif" font-size="14.00" fill="#000000">f</text>
</g>
<!-- c&#45;&#45;f -->
<g id="edge5" class="edge">
<title>c&#45;&#45;f</title>
<path fill="none" stroke="#000000" d="M279,-215.8314C279,-205 279,-191.2876 279,-180.4133"/>
</g>
<!-- g -->
<g id="node9" class="node">
<title>g</title>
<ellipse fill="none" stroke="#000000" cx="351" cy="-162" rx="27" ry="18"/>
<text text-anchor="middle" x="351" y="-158.3" font-family="Times,serif" font-size="14.00" fill="#000000">g</text>
</g>
<!-- c&#45;&#45;g -->
<g id="edge6" class="edge">
<title>c&#45;&#45;g</title>
<path fill="none" stroke="#000000" d="M294.2693,-218.7307C306.488,-206.512 323.5398,-189.4602 335.7527,-177.2473"/>
</g>
<!-- h -->
<g id="node10" class="node">
<title>h</title>
<ellipse fill="none" stroke="#000000" cx="63" cy="-90" rx="27" ry="18"/>
<text text-anchor="middle" x="63" y="-86.3" font-family="Times,serif" font-size="14.00" fill="#000000">h</text>
</g>
<!-- d&#45;&#45;h -->
<g id="edge7" class="edge">
<title>d&#45;&#45;h</title>
<path fill="none" stroke="#000000" d="M119.7307,-146.7307C107.512,-134.512 90.4602,-117.4602 78.2473,-105.2473"/>
</g>
<!-- i -->
<g id="node11" class="node">
<title>i</title>
<ellipse fill="none" stroke="#000000" cx="135" cy="-90" rx="27" ry="18"/>
<text text-anchor="middle" x="135" y="-86.3" font-family="Times,serif" font-size="14.00" fill="#000000">i</text>
</g>
<!-- d&#45;&#45;i -->
<g id="edge8" class="edge">
<title>d&#45;&#45;i</title>
<path fill="none" stroke="#000000" d="M135,-143.8314C135,-133 135,-119.2876 135,-108.4133"/>
</g>
<!-- e&#45;&#45;nn -->
<g id="edge13" class="edge">
<title>e&#45;&#45;nn</title>
<path fill="none" stroke="#000000" d="M207,-143.8314C207,-133 207,-119.2876 207,-108.4133"/>
</g>
<!-- l -->
<g id="node14" class="node">
<title>l</title>
<ellipse fill="none" stroke="#000000" cx="279" cy="-90" rx="27" ry="18"/>
<text text-anchor="middle" x="279" y="-86.3" font-family="Times,serif" font-size="14.00" fill="#000000">l</text>
</g>
<!-- e&#45;&#45;l -->
<g id="edge11" class="edge">
<title>e&#45;&#45;l</title>
<path fill="none" stroke="#000000" d="M222.2693,-146.7307C234.488,-134.512 251.5398,-117.4602 263.7527,-105.2473"/>
</g>
<!-- k -->
<g id="node13" class="node">
<title>k</title>
<ellipse fill="none" stroke="#000000" cx="351" cy="-90" rx="27" ry="18"/>
<text text-anchor="middle" x="351" y="-86.3" font-family="Times,serif" font-size="14.00" fill="#000000">k</text>
</g>
<!-- g&#45;&#45;k -->
<g id="edge10" class="edge">
<title>g&#45;&#45;k</title>
<path fill="none" stroke="#000000" d="M351,-143.8314C351,-133 351,-119.2876 351,-108.4133"/>
</g>
<!-- null -->
<g id="node15" class="node">
<title>null</title>
<ellipse fill="none" stroke="#000000" cx="423" cy="-90" rx="27" ry="18"/>
<text text-anchor="middle" x="423" y="-86.3" font-family="Times,serif" font-size="14.00" fill="#000000">null</text>
</g>
<!-- g&#45;&#45;null -->
<g id="edge12" class="edge">
<title>g&#45;&#45;null</title>
<path fill="none" stroke="#000000" d="M366.2693,-146.7307C378.488,-134.512 395.5398,-117.4602 407.7527,-105.2473"/>
</g>
<!-- h&#45;&#45;nnn -->
<g id="edge14" class="edge">
<title>h&#45;&#45;nnn</title>
<path fill="none" stroke="#000000" d="M54.2854,-72.5708C48.6253,-61.2506 41.2784,-46.5568 35.6343,-35.2687"/>
</g>
<!-- j -->
<g id="node12" class="node">
<title>j</title>
<ellipse fill="none" stroke="#000000" cx="99" cy="-18" rx="27" ry="18"/>
<text text-anchor="middle" x="99" y="-14.3" font-family="Times,serif" font-size="14.00" fill="#000000">j</text>
</g>
<!-- h&#45;&#45;j -->
<g id="edge9" class="edge">
<title>h&#45;&#45;j</title>
<path fill="none" stroke="#000000" d="M71.7146,-72.5708C77.3747,-61.2506 84.7216,-46.5568 90.3657,-35.2687"/>
</g>
</g>
</svg>
