<?xml version="1.0" encoding="UTF-8" standalone="no"?>
<!DOCTYPE svg PUBLIC "-//W3C//DTD SVG 1.1//EN"
 "http://www.w3.org/Graphics/SVG/1.1/DTD/svg11.dtd">
<!-- Generated by graphviz version 2.40.1 (20161225.0304)
 -->
<!-- Title: xxh Pages: 1 -->
<svg width="758pt" height="44pt"
 viewBox="0.00 0.00 758.00 44.00" xmlns="http://www.w3.org/2000/svg" xmlns:xlink="http://www.w3.org/1999/xlink">
<g id="graph0" class="graph" transform="scale(1 1) rotate(0) translate(4 40)">
<title>xxh</title>
<polygon fill="#ffffff" stroke="transparent" points="-4,4 -4,-40 754,-40 754,4 -4,4"/>
<!-- bit -->
<g id="node1" class="node">
<title>bit</title>
<polygon fill="none" stroke="#000000" points="54,-36 0,-36 0,0 54,0 54,-36"/>
<text text-anchor="middle" x="27" y="-14.3" font-family="Times,serif" font-size="14.00" fill="#000000">位(bit)</text>
</g>
<!-- B -->
<g id="node2" class="node">
<title>B</title>
<polygon fill="none" stroke="#000000" points="160,-36 97,-36 97,0 160,0 160,-36"/>
<text text-anchor="middle" x="128.5" y="-14.3" font-family="Times,serif" font-size="14.00" fill="#000000">字节(B)</text>
</g>
<!-- bit&#45;&gt;B -->
<g id="edge1" class="edge">
<title>bit&#45;&gt;B</title>
<path fill="none" stroke="#000000" d="M54.2001,-18C64.1682,-18 75.6936,-18 86.6481,-18"/>
<polygon fill="#000000" stroke="#000000" points="86.9065,-21.5001 96.9064,-18 86.9064,-14.5001 86.9065,-21.5001"/>
<text text-anchor="middle" x="75.5" y="-21.8" font-family="Times,serif" font-size="14.00" fill="#000000">8</text>
</g>
<!-- KB -->
<g id="node3" class="node">
<title>KB</title>
<polygon fill="none" stroke="#000000" points="278,-36 224,-36 224,0 278,0 278,-36"/>
<text text-anchor="middle" x="251" y="-14.3" font-family="Times,serif" font-size="14.00" fill="#000000">KB</text>
</g>
<!-- B&#45;&gt;KB -->
<g id="edge2" class="edge">
<title>B&#45;&gt;KB</title>
<path fill="none" stroke="#000000" d="M160.0468,-18C176.3671,-18 196.3997,-18 213.5066,-18"/>
<polygon fill="#000000" stroke="#000000" points="213.7206,-21.5001 223.7206,-18 213.7205,-14.5001 213.7206,-21.5001"/>
<text text-anchor="middle" x="192" y="-21.8" font-family="Times,serif" font-size="14.00" fill="#000000">1024</text>
</g>
<!-- MB -->
<g id="node4" class="node">
<title>MB</title>
<polygon fill="none" stroke="#000000" points="396,-36 342,-36 342,0 396,0 396,-36"/>
<text text-anchor="middle" x="369" y="-14.3" font-family="Times,serif" font-size="14.00" fill="#000000">MB</text>
</g>
<!-- KB&#45;&gt;MB -->
<g id="edge3" class="edge">
<title>KB&#45;&gt;MB</title>
<path fill="none" stroke="#000000" d="M278.0716,-18C293.8489,-18 313.9852,-18 331.2964,-18"/>
<polygon fill="#000000" stroke="#000000" points="331.6458,-21.5001 341.6458,-18 331.6457,-14.5001 331.6458,-21.5001"/>
<text text-anchor="middle" x="310" y="-21.8" font-family="Times,serif" font-size="14.00" fill="#000000">1024</text>
</g>
<!-- GB -->
<g id="node5" class="node">
<title>GB</title>
<polygon fill="none" stroke="#000000" points="514,-36 460,-36 460,0 514,0 514,-36"/>
<text text-anchor="middle" x="487" y="-14.3" font-family="Times,serif" font-size="14.00" fill="#000000">GB</text>
</g>
<!-- MB&#45;&gt;GB -->
<g id="edge4" class="edge">
<title>MB&#45;&gt;GB</title>
<path fill="none" stroke="#000000" d="M396.0716,-18C411.8489,-18 431.9852,-18 449.2964,-18"/>
<polygon fill="#000000" stroke="#000000" points="449.6458,-21.5001 459.6458,-18 449.6457,-14.5001 449.6458,-21.5001"/>
<text text-anchor="middle" x="428" y="-21.8" font-family="Times,serif" font-size="14.00" fill="#000000">1024</text>
</g>
<!-- TB -->
<g id="node6" class="node">
<title>TB</title>
<polygon fill="none" stroke="#000000" points="632,-36 578,-36 578,0 632,0 632,-36"/>
<text text-anchor="middle" x="605" y="-14.3" font-family="Times,serif" font-size="14.00" fill="#000000">TB</text>
</g>
<!-- GB&#45;&gt;TB -->
<g id="edge5" class="edge">
<title>GB&#45;&gt;TB</title>
<path fill="none" stroke="#000000" d="M514.0716,-18C529.8489,-18 549.9852,-18 567.2964,-18"/>
<polygon fill="#000000" stroke="#000000" points="567.6458,-21.5001 577.6458,-18 567.6457,-14.5001 567.6458,-21.5001"/>
<text text-anchor="middle" x="546" y="-21.8" font-family="Times,serif" font-size="14.00" fill="#000000">1024</text>
</g>
<!-- PB -->
<g id="node7" class="node">
<title>PB</title>
<polygon fill="none" stroke="#000000" points="750,-36 696,-36 696,0 750,0 750,-36"/>
<text text-anchor="middle" x="723" y="-14.3" font-family="Times,serif" font-size="14.00" fill="#000000">PB</text>
</g>
<!-- TB&#45;&gt;PB -->
<g id="edge6" class="edge">
<title>TB&#45;&gt;PB</title>
<path fill="none" stroke="#000000" d="M632.0716,-18C647.8489,-18 667.9852,-18 685.2964,-18"/>
<polygon fill="#000000" stroke="#000000" points="685.6458,-21.5001 695.6458,-18 685.6457,-14.5001 685.6458,-21.5001"/>
<text text-anchor="middle" x="664" y="-21.8" font-family="Times,serif" font-size="14.00" fill="#000000">1024</text>
</g>
</g>
</svg>
