<?xml version="1.0" encoding="UTF-8" standalone="no"?>
<!DOCTYPE svg PUBLIC "-//W3C//DTD SVG 1.1//EN"
 "http://www.w3.org/Graphics/SVG/1.1/DTD/svg11.dtd">
<!-- Generated by graphviz version 2.40.1 (20161225.0304)
 -->
<!-- Title: xxh Pages: 1 -->
<svg width="692pt" height="332pt"
 viewBox="0.00 0.00 692.00 332.00" xmlns="http://www.w3.org/2000/svg" xmlns:xlink="http://www.w3.org/1999/xlink">
<g id="graph0" class="graph" transform="scale(1 1) rotate(0) translate(4 328)">
<title>xxh</title>
<polygon fill="#ffffff" stroke="transparent" points="-4,4 -4,-328 688,-328 688,4 -4,4"/>
<!-- a -->
<g id="node1" class="node">
<title>a</title>
<ellipse fill="none" stroke="#000000" cx="405" cy="-306" rx="27" ry="18"/>
<text text-anchor="middle" x="405" y="-301.8" font-family="Times,serif" font-size="14.00" fill="#000000">a</text>
</g>
<!-- b -->
<g id="node2" class="node">
<title>b</title>
<ellipse fill="none" stroke="#000000" cx="333" cy="-234" rx="27" ry="18"/>
<text text-anchor="middle" x="333" y="-229.8" font-family="Times,serif" font-size="14.00" fill="#000000">b</text>
</g>
<!-- a&#45;&#45;b -->
<g id="edge1" class="edge">
<title>a&#45;&#45;b</title>
<path fill="none" stroke="#000000" d="M389.7307,-290.7307C377.512,-278.512 360.4602,-261.4602 348.2473,-249.2473"/>
</g>
<!-- c -->
<g id="node3" class="node">
<title>c</title>
<ellipse fill="none" stroke="#000000" cx="477" cy="-234" rx="27" ry="18"/>
<text text-anchor="middle" x="477" y="-229.8" font-family="Times,serif" font-size="14.00" fill="#000000">c</text>
</g>
<!-- a&#45;&#45;c -->
<g id="edge2" class="edge">
<title>a&#45;&#45;c</title>
<path fill="none" stroke="#000000" d="M420.2693,-290.7307C432.488,-278.512 449.5398,-261.4602 461.7527,-249.2473"/>
</g>
<!-- d -->
<g id="node4" class="node">
<title>d</title>
<ellipse fill="none" stroke="#000000" cx="207" cy="-162" rx="27" ry="18"/>
<text text-anchor="middle" x="207" y="-157.8" font-family="Times,serif" font-size="14.00" fill="#000000">d</text>
</g>
<!-- b&#45;&#45;d -->
<g id="edge3" class="edge">
<title>b&#45;&#45;d</title>
<path fill="none" stroke="#000000" d="M312.4755,-222.2717C289.045,-208.8829 250.9425,-187.11 227.5157,-173.7233"/>
</g>
<!-- e -->
<g id="node5" class="node">
<title>e</title>
<ellipse fill="none" stroke="#000000" cx="333" cy="-162" rx="27" ry="18"/>
<text text-anchor="middle" x="333" y="-157.8" font-family="Times,serif" font-size="14.00" fill="#000000">e</text>
</g>
<!-- b&#45;&#45;e -->
<g id="edge4" class="edge">
<title>b&#45;&#45;e</title>
<path fill="none" stroke="#000000" d="M333,-215.8314C333,-205 333,-191.2876 333,-180.4133"/>
</g>
<!-- f -->
<g id="node6" class="node">
<title>f</title>
<ellipse fill="none" stroke="#000000" cx="477" cy="-162" rx="27" ry="18"/>
<text text-anchor="middle" x="477" y="-157.8" font-family="Times,serif" font-size="14.00" fill="#000000">f</text>
</g>
<!-- c&#45;&#45;f -->
<g id="edge5" class="edge">
<title>c&#45;&#45;f</title>
<path fill="none" stroke="#000000" d="M477,-215.8314C477,-205 477,-191.2876 477,-180.4133"/>
</g>
<!-- g -->
<g id="node7" class="node">
<title>g</title>
<ellipse fill="none" stroke="#000000" cx="585" cy="-162" rx="27" ry="18"/>
<text text-anchor="middle" x="585" y="-157.8" font-family="Times,serif" font-size="14.00" fill="#000000">g</text>
</g>
<!-- c&#45;&#45;g -->
<g id="edge6" class="edge">
<title>c&#45;&#45;g</title>
<path fill="none" stroke="#000000" d="M496.3082,-221.1278C515.9663,-208.0225 546.2614,-187.8257 565.8589,-174.7607"/>
</g>
<!-- h -->
<g id="node8" class="node">
<title>h</title>
<ellipse fill="none" stroke="#000000" cx="99" cy="-90" rx="27" ry="18"/>
<text text-anchor="middle" x="99" y="-85.8" font-family="Times,serif" font-size="14.00" fill="#000000">h</text>
</g>
<!-- d&#45;&#45;h -->
<g id="edge7" class="edge">
<title>d&#45;&#45;h</title>
<path fill="none" stroke="#000000" d="M187.6918,-149.1278C168.0337,-136.0225 137.7386,-115.8257 118.1411,-102.7607"/>
</g>
<!-- i -->
<g id="node9" class="node">
<title>i</title>
<ellipse fill="none" stroke="#000000" cx="207" cy="-90" rx="27" ry="18"/>
<text text-anchor="middle" x="207" y="-85.8" font-family="Times,serif" font-size="14.00" fill="#000000">i</text>
</g>
<!-- d&#45;&#45;i -->
<g id="edge8" class="edge">
<title>d&#45;&#45;i</title>
<path fill="none" stroke="#000000" d="M207,-143.8314C207,-133 207,-119.2876 207,-108.4133"/>
</g>
<!-- l -->
<g id="node12" class="node">
<title>l</title>
<ellipse fill="none" stroke="#000000" cx="297" cy="-90" rx="27" ry="18"/>
<text text-anchor="middle" x="297" y="-85.8" font-family="Times,serif" font-size="14.00" fill="#000000">l</text>
</g>
<!-- e&#45;&#45;l -->
<g id="edge11" class="edge">
<title>e&#45;&#45;l</title>
<path fill="none" stroke="#000000" d="M324.2854,-144.5708C318.6253,-133.2506 311.2784,-118.5568 305.6343,-107.2687"/>
</g>
<!-- m -->
<g id="node13" class="node">
<title>m</title>
<ellipse fill="none" stroke="#000000" cx="369" cy="-90" rx="27" ry="18"/>
<text text-anchor="middle" x="369" y="-85.8" font-family="Times,serif" font-size="14.00" fill="#000000">m</text>
</g>
<!-- e&#45;&#45;m -->
<g id="edge12" class="edge">
<title>e&#45;&#45;m</title>
<path fill="none" stroke="#000000" d="M341.7146,-144.5708C347.3747,-133.2506 354.7216,-118.5568 360.3657,-107.2687"/>
</g>
<!-- n -->
<g id="node14" class="node">
<title>n</title>
<ellipse fill="none" stroke="#000000" cx="441" cy="-90" rx="27" ry="18"/>
<text text-anchor="middle" x="441" y="-85.8" font-family="Times,serif" font-size="14.00" fill="#000000">n</text>
</g>
<!-- f&#45;&#45;n -->
<g id="edge13" class="edge">
<title>f&#45;&#45;n</title>
<path fill="none" stroke="#000000" d="M468.2854,-144.5708C462.6253,-133.2506 455.2784,-118.5568 449.6343,-107.2687"/>
</g>
<!-- o -->
<g id="node15" class="node">
<title>o</title>
<ellipse fill="none" stroke="#000000" cx="513" cy="-90" rx="27" ry="18"/>
<text text-anchor="middle" x="513" y="-85.8" font-family="Times,serif" font-size="14.00" fill="#000000">o</text>
</g>
<!-- f&#45;&#45;o -->
<g id="edge14" class="edge">
<title>f&#45;&#45;o</title>
<path fill="none" stroke="#000000" d="M485.7146,-144.5708C491.3747,-133.2506 498.7216,-118.5568 504.3657,-107.2687"/>
</g>
<!-- k -->
<g id="node11" class="node">
<title>k</title>
<ellipse fill="none" stroke="#000000" cx="585" cy="-90" rx="27" ry="18"/>
<text text-anchor="middle" x="585" y="-85.8" font-family="Times,serif" font-size="14.00" fill="#000000">k</text>
</g>
<!-- g&#45;&#45;k -->
<g id="edge10" class="edge">
<title>g&#45;&#45;k</title>
<path fill="none" stroke="#000000" d="M585,-143.8314C585,-133 585,-119.2876 585,-108.4133"/>
</g>
<!-- p -->
<g id="node16" class="node">
<title>p</title>
<ellipse fill="none" stroke="#000000" cx="657" cy="-90" rx="27" ry="18"/>
<text text-anchor="middle" x="657" y="-85.8" font-family="Times,serif" font-size="14.00" fill="#000000">p</text>
</g>
<!-- g&#45;&#45;p -->
<g id="edge15" class="edge">
<title>g&#45;&#45;p</title>
<path fill="none" stroke="#000000" d="M600.2693,-146.7307C612.488,-134.512 629.5398,-117.4602 641.7527,-105.2473"/>
</g>
<!-- j -->
<g id="node10" class="node">
<title>j</title>
<ellipse fill="none" stroke="#000000" cx="27" cy="-18" rx="27" ry="18"/>
<text text-anchor="middle" x="27" y="-13.8" font-family="Times,serif" font-size="14.00" fill="#000000">j</text>
</g>
<!-- h&#45;&#45;j -->
<g id="edge9" class="edge">
<title>h&#45;&#45;j</title>
<path fill="none" stroke="#000000" d="M83.7307,-74.7307C71.512,-62.512 54.4602,-45.4602 42.2473,-33.2473"/>
</g>
<!-- q -->
<g id="node17" class="node">
<title>q</title>
<ellipse fill="none" stroke="#000000" cx="99" cy="-18" rx="27" ry="18"/>
<text text-anchor="middle" x="99" y="-13.8" font-family="Times,serif" font-size="14.00" fill="#000000">q</text>
</g>
<!-- h&#45;&#45;q -->
<g id="edge16" class="edge">
<title>h&#45;&#45;q</title>
<path fill="none" stroke="#000000" d="M99,-71.8314C99,-61 99,-47.2876 99,-36.4133"/>
</g>
<!-- r -->
<g id="node18" class="node">
<title>r</title>
<ellipse fill="none" stroke="#000000" cx="171" cy="-18" rx="27" ry="18"/>
<text text-anchor="middle" x="171" y="-13.8" font-family="Times,serif" font-size="14.00" fill="#000000">r</text>
</g>
<!-- i&#45;&#45;r -->
<g id="edge17" class="edge">
<title>i&#45;&#45;r</title>
<path fill="none" stroke="#000000" d="M198.2854,-72.5708C192.6253,-61.2506 185.2784,-46.5568 179.6343,-35.2687"/>
</g>
<!-- s -->
<g id="node19" class="node">
<title>s</title>
<ellipse fill="none" stroke="#000000" cx="243" cy="-18" rx="27" ry="18"/>
<text text-anchor="middle" x="243" y="-13.8" font-family="Times,serif" font-size="14.00" fill="#000000">s</text>
</g>
<!-- i&#45;&#45;s -->
<g id="edge18" class="edge">
<title>i&#45;&#45;s</title>
<path fill="none" stroke="#000000" d="M215.7146,-72.5708C221.3747,-61.2506 228.7216,-46.5568 234.3657,-35.2687"/>
</g>
<!-- t -->
<g id="node20" class="node">
<title>t</title>
<ellipse fill="none" stroke="#000000" cx="315" cy="-18" rx="27" ry="18"/>
<text text-anchor="middle" x="315" y="-13.8" font-family="Times,serif" font-size="14.00" fill="#000000">t</text>
</g>
<!-- l&#45;&#45;t -->
<g id="edge19" class="edge">
<title>l&#45;&#45;t</title>
<path fill="none" stroke="#000000" d="M301.4494,-72.2022C304.2187,-61.1252 307.768,-46.928 310.5394,-35.8425"/>
</g>
</g>
</svg>
