<?xml version="1.0" encoding="UTF-8" standalone="no"?>
<!DOCTYPE svg PUBLIC "-//W3C//DTD SVG 1.1//EN"
 "http://www.w3.org/Graphics/SVG/1.1/DTD/svg11.dtd">
<!-- Generated by graphviz version 2.40.1 (20161225.0304)
 -->
<!-- Title: xxh Pages: 1 -->
<svg width="275pt" height="188pt"
 viewBox="0.00 0.00 274.59 188.00" xmlns="http://www.w3.org/2000/svg" xmlns:xlink="http://www.w3.org/1999/xlink">
<g id="graph0" class="graph" transform="scale(1 1) rotate(0) translate(4 184)">
<title>xxh</title>
<polygon fill="#ffffff" stroke="transparent" points="-4,4 -4,-184 270.5905,-184 270.5905,4 -4,4"/>
<!-- zang -->
<g id="node1" class="node">
<title>zang</title>
<ellipse fill="none" stroke="#000000" cx="164.9452" cy="-162" rx="43.5923" ry="18"/>
<text text-anchor="middle" x="164.9452" y="-158.3" font-family="Times,serif" font-size="14.00" fill="#000000">zhangsan</text>
</g>
<!-- li -->
<g id="node2" class="node">
<title>li</title>
<ellipse fill="none" stroke="#000000" cx="115.9452" cy="-90" rx="27" ry="18"/>
<text text-anchor="middle" x="115.9452" y="-86.3" font-family="Times,serif" font-size="14.00" fill="#000000">lisi</text>
</g>
<!-- zang&#45;&#45;li -->
<g id="edge1" class="edge">
<title>zang&#45;&#45;li</title>
<path fill="none" stroke="#000000" d="M153.0837,-144.5708C145.2664,-133.0841 135.0851,-118.1239 127.3601,-106.7729"/>
</g>
<!-- ma -->
<g id="node4" class="node">
<title>ma</title>
<ellipse fill="none" stroke="#000000" cx="213.9452" cy="-90" rx="52.7911" ry="18"/>
<text text-anchor="middle" x="213.9452" y="-86.3" font-family="Times,serif" font-size="14.00" fill="#000000">madashaozi</text>
</g>
<!-- zang&#45;&#45;ma -->
<g id="edge3" class="edge">
<title>zang&#45;&#45;ma</title>
<path fill="none" stroke="#000000" d="M176.8067,-144.5708C184.3975,-133.4171 194.2171,-118.9882 201.8525,-107.7689"/>
</g>
<!-- wang -->
<g id="node3" class="node">
<title>wang</title>
<ellipse fill="none" stroke="#000000" cx="53.9452" cy="-18" rx="53.8905" ry="18"/>
<text text-anchor="middle" x="53.9452" y="-14.3" font-family="Times,serif" font-size="14.00" fill="#000000">wangermazi</text>
</g>
<!-- li&#45;&#45;wang -->
<g id="edge2" class="edge">
<title>li&#45;&#45;wang</title>
<path fill="none" stroke="#000000" d="M102.4921,-74.3771C92.5913,-62.8793 79.1298,-47.2466 68.8932,-35.3589"/>
</g>
<!-- xiao -->
<g id="node5" class="node">
<title>xiao</title>
<ellipse fill="none" stroke="#000000" cx="177.9452" cy="-18" rx="51.9908" ry="18"/>
<text text-anchor="middle" x="177.9452" y="-14.3" font-family="Times,serif" font-size="14.00" fill="#000000">wangxiaoer</text>
</g>
<!-- li&#45;&#45;xiao -->
<g id="edge4" class="edge">
<title>li&#45;&#45;xiao</title>
<path fill="none" stroke="#000000" d="M129.3983,-74.3771C139.2992,-62.8793 152.7607,-47.2466 162.9973,-35.3589"/>
</g>
</g>
</svg>
