<?xml version="1.0" encoding="UTF-8" standalone="no"?>
<!DOCTYPE svg PUBLIC "-//W3C//DTD SVG 1.1//EN"
 "http://www.w3.org/Graphics/SVG/1.1/DTD/svg11.dtd">
<!-- Generated by graphviz version 2.40.1 (20161225.0304)
 -->
<!-- Title: xxh Pages: 1 -->
<svg width="566pt" height="260pt"
 viewBox="0.00 0.00 566.00 260.00" xmlns="http://www.w3.org/2000/svg" xmlns:xlink="http://www.w3.org/1999/xlink">
<g id="graph0" class="graph" transform="scale(1 1) rotate(0) translate(4 256)">
<title>xxh</title>
<polygon fill="#ffffff" stroke="transparent" points="-4,4 -4,-256 562,-256 562,4 -4,4"/>
<!-- a -->
<g id="node1" class="node">
<title>a</title>
<ellipse fill="none" stroke="#000000" cx="279" cy="-234" rx="27" ry="18"/>
<text text-anchor="middle" x="279" y="-229.8" font-family="Times,serif" font-size="14.00" fill="#000000">a</text>
</g>
<!-- b -->
<g id="node2" class="node">
<title>b</title>
<ellipse fill="none" stroke="#000000" cx="207" cy="-162" rx="27" ry="18"/>
<text text-anchor="middle" x="207" y="-157.8" font-family="Times,serif" font-size="14.00" fill="#000000">b</text>
</g>
<!-- a&#45;&#45;b -->
<g id="edge1" class="edge">
<title>a&#45;&#45;b</title>
<path fill="none" stroke="#000000" d="M263.7307,-218.7307C251.512,-206.512 234.4602,-189.4602 222.2473,-177.2473"/>
</g>
<!-- c -->
<g id="node3" class="node">
<title>c</title>
<ellipse fill="none" stroke="#000000" cx="351" cy="-162" rx="27" ry="18"/>
<text text-anchor="middle" x="351" y="-157.8" font-family="Times,serif" font-size="14.00" fill="#000000">c</text>
</g>
<!-- a&#45;&#45;c -->
<g id="edge2" class="edge">
<title>a&#45;&#45;c</title>
<path fill="none" stroke="#000000" d="M294.2693,-218.7307C306.488,-206.512 323.5398,-189.4602 335.7527,-177.2473"/>
</g>
<!-- d -->
<g id="node4" class="node">
<title>d</title>
<ellipse fill="none" stroke="#000000" cx="99" cy="-90" rx="27" ry="18"/>
<text text-anchor="middle" x="99" y="-85.8" font-family="Times,serif" font-size="14.00" fill="#000000">d</text>
</g>
<!-- b&#45;&#45;d -->
<g id="edge3" class="edge">
<title>b&#45;&#45;d</title>
<path fill="none" stroke="#000000" d="M187.6918,-149.1278C168.0337,-136.0225 137.7386,-115.8257 118.1411,-102.7607"/>
</g>
<!-- e -->
<g id="node5" class="node">
<title>e</title>
<ellipse fill="none" stroke="#000000" cx="207" cy="-90" rx="27" ry="18"/>
<text text-anchor="middle" x="207" y="-85.8" font-family="Times,serif" font-size="14.00" fill="#000000">e</text>
</g>
<!-- b&#45;&#45;e -->
<g id="edge4" class="edge">
<title>b&#45;&#45;e</title>
<path fill="none" stroke="#000000" d="M207,-143.8314C207,-133 207,-119.2876 207,-108.4133"/>
</g>
<!-- f -->
<g id="node6" class="node">
<title>f</title>
<ellipse fill="none" stroke="#000000" cx="351" cy="-90" rx="27" ry="18"/>
<text text-anchor="middle" x="351" y="-85.8" font-family="Times,serif" font-size="14.00" fill="#000000">f</text>
</g>
<!-- c&#45;&#45;f -->
<g id="edge5" class="edge">
<title>c&#45;&#45;f</title>
<path fill="none" stroke="#000000" d="M351,-143.8314C351,-133 351,-119.2876 351,-108.4133"/>
</g>
<!-- g -->
<g id="node7" class="node">
<title>g</title>
<ellipse fill="none" stroke="#000000" cx="459" cy="-90" rx="27" ry="18"/>
<text text-anchor="middle" x="459" y="-85.8" font-family="Times,serif" font-size="14.00" fill="#000000">g</text>
</g>
<!-- c&#45;&#45;g -->
<g id="edge6" class="edge">
<title>c&#45;&#45;g</title>
<path fill="none" stroke="#000000" d="M370.3082,-149.1278C389.9663,-136.0225 420.2614,-115.8257 439.8589,-102.7607"/>
</g>
<!-- h -->
<g id="node8" class="node">
<title>h</title>
<ellipse fill="none" stroke="#000000" cx="27" cy="-18" rx="27" ry="18"/>
<text text-anchor="middle" x="27" y="-13.8" font-family="Times,serif" font-size="14.00" fill="#000000">h</text>
</g>
<!-- d&#45;&#45;h -->
<g id="edge7" class="edge">
<title>d&#45;&#45;h</title>
<path fill="none" stroke="#000000" d="M83.7307,-74.7307C71.512,-62.512 54.4602,-45.4602 42.2473,-33.2473"/>
</g>
<!-- i -->
<g id="node9" class="node">
<title>i</title>
<ellipse fill="none" stroke="#000000" cx="99" cy="-18" rx="27" ry="18"/>
<text text-anchor="middle" x="99" y="-13.8" font-family="Times,serif" font-size="14.00" fill="#000000">i</text>
</g>
<!-- d&#45;&#45;i -->
<g id="edge8" class="edge">
<title>d&#45;&#45;i</title>
<path fill="none" stroke="#000000" d="M99,-71.8314C99,-61 99,-47.2876 99,-36.4133"/>
</g>
<!-- l -->
<g id="node11" class="node">
<title>l</title>
<ellipse fill="none" stroke="#000000" cx="171" cy="-18" rx="27" ry="18"/>
<text text-anchor="middle" x="171" y="-13.8" font-family="Times,serif" font-size="14.00" fill="#000000">l</text>
</g>
<!-- e&#45;&#45;l -->
<g id="edge10" class="edge">
<title>e&#45;&#45;l</title>
<path fill="none" stroke="#000000" d="M198.2854,-72.5708C192.6253,-61.2506 185.2784,-46.5568 179.6343,-35.2687"/>
</g>
<!-- m -->
<g id="node12" class="node">
<title>m</title>
<ellipse fill="none" stroke="#000000" cx="243" cy="-18" rx="27" ry="18"/>
<text text-anchor="middle" x="243" y="-13.8" font-family="Times,serif" font-size="14.00" fill="#000000">m</text>
</g>
<!-- e&#45;&#45;m -->
<g id="edge11" class="edge">
<title>e&#45;&#45;m</title>
<path fill="none" stroke="#000000" d="M215.7146,-72.5708C221.3747,-61.2506 228.7216,-46.5568 234.3657,-35.2687"/>
</g>
<!-- n -->
<g id="node13" class="node">
<title>n</title>
<ellipse fill="none" stroke="#000000" cx="315" cy="-18" rx="27" ry="18"/>
<text text-anchor="middle" x="315" y="-13.8" font-family="Times,serif" font-size="14.00" fill="#000000">n</text>
</g>
<!-- f&#45;&#45;n -->
<g id="edge12" class="edge">
<title>f&#45;&#45;n</title>
<path fill="none" stroke="#000000" d="M342.2854,-72.5708C336.6253,-61.2506 329.2784,-46.5568 323.6343,-35.2687"/>
</g>
<!-- o -->
<g id="node14" class="node">
<title>o</title>
<ellipse fill="none" stroke="#000000" cx="387" cy="-18" rx="27" ry="18"/>
<text text-anchor="middle" x="387" y="-13.8" font-family="Times,serif" font-size="14.00" fill="#000000">o</text>
</g>
<!-- f&#45;&#45;o -->
<g id="edge13" class="edge">
<title>f&#45;&#45;o</title>
<path fill="none" stroke="#000000" d="M359.7146,-72.5708C365.3747,-61.2506 372.7216,-46.5568 378.3657,-35.2687"/>
</g>
<!-- k -->
<g id="node10" class="node">
<title>k</title>
<ellipse fill="none" stroke="#000000" cx="459" cy="-18" rx="27" ry="18"/>
<text text-anchor="middle" x="459" y="-13.8" font-family="Times,serif" font-size="14.00" fill="#000000">k</text>
</g>
<!-- g&#45;&#45;k -->
<g id="edge9" class="edge">
<title>g&#45;&#45;k</title>
<path fill="none" stroke="#000000" d="M459,-71.8314C459,-61 459,-47.2876 459,-36.4133"/>
</g>
<!-- p -->
<g id="node15" class="node">
<title>p</title>
<ellipse fill="none" stroke="#000000" cx="531" cy="-18" rx="27" ry="18"/>
<text text-anchor="middle" x="531" y="-13.8" font-family="Times,serif" font-size="14.00" fill="#000000">p</text>
</g>
<!-- g&#45;&#45;p -->
<g id="edge14" class="edge">
<title>g&#45;&#45;p</title>
<path fill="none" stroke="#000000" d="M474.2693,-74.7307C486.488,-62.512 503.5398,-45.4602 515.7527,-33.2473"/>
</g>
</g>
</svg>
