<?xml version="1.0" encoding="UTF-8" standalone="no"?>
<!DOCTYPE svg PUBLIC "-//W3C//DTD SVG 1.1//EN"
 "http://www.w3.org/Graphics/SVG/1.1/DTD/svg11.dtd">
<!-- Generated by graphviz version 2.40.1 (20161225.0304)
 -->
<!-- Title: xxh Pages: 1 -->
<svg width="332pt" height="67pt"
 viewBox="0.00 0.00 332.00 67.00" xmlns="http://www.w3.org/2000/svg" xmlns:xlink="http://www.w3.org/1999/xlink">
<g id="graph0" class="graph" transform="scale(1 1) rotate(0) translate(4 63)">
<title>xxh</title>
<polygon fill="#ffffff" stroke="transparent" points="-4,4 -4,-63 328,-63 328,4 -4,4"/>
<text text-anchor="middle" x="162" y="-7.8" font-family="Times,serif" font-size="14.00" fill="#000000">b、c为环</text>
<!-- a -->
<g id="node1" class="node">
<title>a</title>
<ellipse fill="none" stroke="#000000" cx="27" cy="-41" rx="27" ry="18"/>
<text text-anchor="middle" x="27" y="-37.3" font-family="Times,serif" font-size="14.00" fill="#000000">a</text>
</g>
<!-- b -->
<g id="node2" class="node">
<title>b</title>
<ellipse fill="none" stroke="#000000" cx="117" cy="-41" rx="27" ry="18"/>
<text text-anchor="middle" x="117" y="-37.3" font-family="Times,serif" font-size="14.00" fill="#000000">b</text>
</g>
<!-- a&#45;&gt;b -->
<g id="edge1" class="edge">
<title>a&#45;&gt;b</title>
<path fill="none" stroke="#000000" d="M54.003,-41C62.0277,-41 70.9665,-41 79.5309,-41"/>
<polygon fill="#000000" stroke="#000000" points="79.7051,-44.5001 89.705,-41 79.705,-37.5001 79.7051,-44.5001"/>
</g>
<!-- c -->
<g id="node3" class="node">
<title>c</title>
<ellipse fill="none" stroke="#000000" cx="207" cy="-41" rx="27" ry="18"/>
<text text-anchor="middle" x="207" y="-37.3" font-family="Times,serif" font-size="14.00" fill="#000000">c</text>
</g>
<!-- b&#45;&gt;c -->
<g id="edge2" class="edge">
<title>b&#45;&gt;c</title>
<path fill="none" stroke="#000000" d="M142.5497,-34.8449C151.4801,-34.2634 161.6762,-34.1082 171.2822,-34.3793"/>
<polygon fill="#000000" stroke="#000000" points="171.2372,-37.8808 181.3865,-34.8408 171.5566,-30.8881 171.2372,-37.8808"/>
</g>
<!-- c&#45;&gt;b -->
<g id="edge4" class="edge">
<title>c&#45;&gt;b</title>
<path fill="none" stroke="#000000" d="M181.3865,-47.1592C172.45,-47.7387 162.2523,-47.8919 152.6491,-47.6188"/>
<polygon fill="#000000" stroke="#000000" points="152.6997,-44.1175 142.5497,-47.1551 152.3786,-51.1101 152.6997,-44.1175"/>
</g>
<!-- d -->
<g id="node4" class="node">
<title>d</title>
<ellipse fill="none" stroke="#000000" cx="297" cy="-41" rx="27" ry="18"/>
<text text-anchor="middle" x="297" y="-37.3" font-family="Times,serif" font-size="14.00" fill="#000000">d</text>
</g>
<!-- c&#45;&gt;d -->
<g id="edge3" class="edge">
<title>c&#45;&gt;d</title>
<path fill="none" stroke="#000000" d="M234.003,-41C242.0277,-41 250.9665,-41 259.5309,-41"/>
<polygon fill="#000000" stroke="#000000" points="259.7051,-44.5001 269.705,-41 259.705,-37.5001 259.7051,-44.5001"/>
</g>
</g>
</svg>
