<?xml version="1.0" encoding="UTF-8" standalone="no"?>
<!DOCTYPE svg PUBLIC "-//W3C//DTD SVG 1.1//EN"
 "http://www.w3.org/Graphics/SVG/1.1/DTD/svg11.dtd">
<!-- Generated by graphviz version 2.40.1 (20161225.0304)
 -->
<!-- Title: xxh Pages: 1 -->
<svg width="188pt" height="330pt"
 viewBox="0.00 0.00 188.00 329.60" xmlns="http://www.w3.org/2000/svg" xmlns:xlink="http://www.w3.org/1999/xlink">
<g id="graph0" class="graph" transform="scale(1 1) rotate(0) translate(4 325.6)">
<title>xxh</title>
<polygon fill="#ffffff" stroke="transparent" points="-4,4 -4,-325.6 184,-325.6 184,4 -4,4"/>
<!-- 1 -->
<g id="node1" class="node">
<title>1</title>
<ellipse fill="none" stroke="#000000" cx="99" cy="-303.6" rx="27" ry="18"/>
<text text-anchor="middle" x="99" y="-299.4" font-family="Times,serif" font-size="14.00" fill="#000000">1</text>
</g>
<!-- 2 -->
<g id="node2" class="node">
<title>2</title>
<ellipse fill="none" stroke="#000000" cx="27" cy="-214.8" rx="27" ry="18"/>
<text text-anchor="middle" x="27" y="-210.6" font-family="Times,serif" font-size="14.00" fill="#000000">2</text>
</g>
<!-- 1&#45;&#45;2 -->
<g id="edge1" class="edge">
<title>1&#45;&#45;2</title>
<path fill="none" stroke="#000000" d="M86.1278,-287.7243C73.1034,-271.6608 53.0748,-246.9589 40.0035,-230.8376"/>
<text text-anchor="middle" x="75.25" y="-255" font-family="Times,serif" font-size="14.00" fill="#000000"> 5</text>
</g>
<!-- 3 -->
<g id="node3" class="node">
<title>3</title>
<ellipse fill="none" stroke="#000000" cx="153" cy="-160.8" rx="27" ry="18"/>
<text text-anchor="middle" x="153" y="-156.6" font-family="Times,serif" font-size="14.00" fill="#000000">3</text>
</g>
<!-- 1&#45;&#45;3 -->
<g id="edge2" class="edge">
<title>1&#45;&#45;3</title>
<path fill="none" stroke="#000000" d="M109.0005,-286.6364C116.939,-272.593 127.8548,-251.9166 135,-232.8 141.6764,-214.9376 146.6493,-193.6641 149.657,-178.8938"/>
<text text-anchor="middle" x="133.25" y="-255" font-family="Times,serif" font-size="14.00" fill="#000000"> 2</text>
</g>
<!-- 4 -->
<g id="node4" class="node">
<title>4</title>
<ellipse fill="none" stroke="#000000" cx="99" cy="-214.8" rx="27" ry="18"/>
<text text-anchor="middle" x="99" y="-210.6" font-family="Times,serif" font-size="14.00" fill="#000000">4</text>
</g>
<!-- 1&#45;&#45;4 -->
<g id="edge3" class="edge">
<title>1&#45;&#45;4</title>
<path fill="none" stroke="#000000" d="M99,-285.2006C99,-269.8587 99,-248.122 99,-232.872"/>
<text text-anchor="middle" x="104.25" y="-255" font-family="Times,serif" font-size="14.00" fill="#000000"> 6</text>
</g>
<!-- 5 -->
<g id="node5" class="node">
<title>5</title>
<ellipse fill="none" stroke="#000000" cx="88" cy="-106.8" rx="27" ry="18"/>
<text text-anchor="middle" x="88" y="-102.6" font-family="Times,serif" font-size="14.00" fill="#000000">5</text>
</g>
<!-- 2&#45;&#45;5 -->
<g id="edge4" class="edge">
<title>2&#45;&#45;5</title>
<path fill="none" stroke="#000000" d="M36.5313,-197.925C47.9241,-177.7541 66.8824,-144.1885 78.3344,-123.9129"/>
<text text-anchor="middle" x="72.25" y="-156.6" font-family="Times,serif" font-size="14.00" fill="#000000"> 1</text>
</g>
<!-- 6 -->
<g id="node6" class="node">
<title>6</title>
<ellipse fill="none" stroke="#000000" cx="88" cy="-18" rx="27" ry="18"/>
<text text-anchor="middle" x="88" y="-13.8" font-family="Times,serif" font-size="14.00" fill="#000000">6</text>
</g>
<!-- 2&#45;&#45;6 -->
<g id="edge8" class="edge">
<title>2&#45;&#45;6</title>
<path fill="none" stroke="#000000" d="M26.4947,-196.6763C26.3687,-171.6471 28.2145,-125.44 41.5,-88.8 49.0193,-68.0626 63.6914,-47.3196 74.5526,-33.6972"/>
<text text-anchor="middle" x="47.25" y="-102.6" font-family="Times,serif" font-size="14.00" fill="#000000"> 5</text>
</g>
<!-- 3&#45;&#45;6 -->
<g id="edge5" class="edge">
<title>3&#45;&#45;6</title>
<path fill="none" stroke="#000000" d="M146.3911,-143.1598C140.77,-128.4709 132.3092,-107.0791 124,-88.8 115.4975,-70.0956 104.697,-49.1801 97.1539,-34.9636"/>
<text text-anchor="middle" x="143.25" y="-102.6" font-family="Times,serif" font-size="14.00" fill="#000000"> 3</text>
</g>
<!-- 4&#45;&#45;5 -->
<g id="edge7" class="edge">
<title>4&#45;&#45;5</title>
<path fill="none" stroke="#000000" d="M97.134,-196.4793C95.099,-176.499 91.8625,-144.7231 89.8384,-124.8502"/>
<text text-anchor="middle" x="101.25" y="-156.6" font-family="Times,serif" font-size="14.00" fill="#000000"> 4</text>
</g>
<!-- 5&#45;&#45;6 -->
<g id="edge6" class="edge">
<title>5&#45;&#45;6</title>
<path fill="none" stroke="#000000" d="M88,-88.4006C88,-73.0587 88,-51.322 88,-36.072"/>
<text text-anchor="middle" x="93.25" y="-58.2" font-family="Times,serif" font-size="14.00" fill="#000000"> 2</text>
</g>
</g>
</svg>
